<svg width="24" height="24" viewBox="0 0 24 24" fill="none" xmlns="http://www.w3.org/2000/svg">
<path d="M10 4C10 3.44772 10.4477 3 11 3H13C13.5523 3 14 3.44772 14 4V5.28988C14.4655 5.42843 14.9108 5.6141 15.3302 5.84137L16.2426 4.92891C16.6332 4.53838 17.2663 4.53838 17.6569 4.92891L19.0711 6.34312C19.4616 6.73365 19.4616 7.36681 19.0711 7.75734L18.1586 8.66978C18.3859 9.0892 18.5716 9.53445 18.7101 10H20C20.5523 10 21 10.4477 21 11V13C21 13.5523 20.5523 14 20 14H18.7101C18.5716 14.4655 18.3859 14.9108 18.1586 15.3302L19.0711 16.2427C19.4616 16.6332 19.4616 17.2664 19.0711 17.6569L17.6569 19.0711C17.2663 19.4616 16.6332 19.4616 16.2426 19.0711L15.3302 18.1586C14.9108 18.3859 14.4655 18.5716 14 18.7101V20C14 20.5523 13.5523 21 13 21H11C10.4477 21 10 20.5523 10 20V18.7101C9.53447 18.5716 9.08922 18.3859 8.6698 18.1586L7.75736 19.071C7.36684 19.4616 6.73367 19.4616 6.34315 19.071L4.92894 17.6568C4.53841 17.2663 4.53841 16.6331 4.92894 16.2426L5.84138 15.3302C5.61412 14.9108 5.42844 14.4655 5.28989 14H4C3.44772 14 3 13.5523 3 13V11C3 10.4477 3.44772 10 4 10H5.28989C5.42844 9.53447 5.61412 9.08923 5.84138 8.66982L4.92894 7.75738C4.53842 7.36686 4.53842 6.73369 4.92894 6.34317L6.34315 4.92895C6.73368 4.53843 7.36684 4.53843 7.75737 4.92895L8.6698 5.84139C9.08922 5.61411 9.53447 5.42843 10 5.28988V4Z" stroke="#141C24" stroke-width="1.5" stroke-linecap="round" stroke-linejoin="round"/>
<path d="M15 12C15 13.6569 13.6569 15 12 15C10.3432 15 9.00002 13.6569 9.00002 12C9.00002 10.3431 10.3432 9 12 9C13.6569 9 15 10.3431 15 12Z" stroke="#141C24" stroke-width="1.5" stroke-linecap="round" stroke-linejoin="round"/>
</svg>
